<?xml version="1.0" encoding="UTF-8"?>
<svg id="Layer_1" xmlns="http://www.w3.org/2000/svg" version="1.1" viewBox="0 0 235 50">
  <!-- Generator: Adobe Illustrator 30.2.1, SVG Export Plug-In . SVG Version: 2.1.1 Build 1)  -->
  <defs>
    <style>
      .st0 {
        stroke-width: .4px;
      }

      .st0, .st1 {
        fill: #231f20;
        fill-rule: evenodd;
        stroke: #231f20;
      }

      .st0, .st1, .st2 {
        stroke-miterlimit: 10;
      }

      .st1 {
        stroke-width: .2px;
      }

      .st3 {
        fill: #fff;
      }

      .st2 {
        fill: #ffc337;
        stroke: #fff;
        stroke-width: 3px;
      }
    </style>
  </defs>
  <circle class="st2" cx="25.5" cy="25.3" r="22.9"/>
  <g>
    <path class="st0" d="M22.9,39.1c0,.2-.2.4-.5.4s-.5-.2-.5-.4.2-.5.5-.5.5.3.5.5h0Z"/>
    <path class="st0" d="M24.4,39c0,.3-.2.5-.5.5s-.5-.2-.5-.5.2-.5.5-.5.5.3.5.5h0Z"/>
    <path class="st0" d="M25.9,39c0,.3-.2.5-.5.5s-.5-.2-.5-.5.2-.5.5-.5.5.2.5.5h0Z"/>
    <path class="st0" d="M27.4,38.9c0,.2-.2.5-.5.5s-.5-.2-.5-.5.2-.5.5-.5.5.2.5.5h0Z"/>
    <path class="st0" d="M28.8,38.8c0,.3-.2.5-.5.5s-.5-.2-.5-.5.2-.5.5-.5.5.2.5.5h0Z"/>
    <path class="st1" d="M29.9,36.1c0,.6-.5,1-1,1s-1-.5-1-1,.5-1,1-1,1,.5,1,1h0Z"/>
    <path class="st1" d="M30.6,33.6c0,.6-.5,1-1,1s-1-.4-1-1,.5-1,1-1,1,.4,1,1h0Z"/>
    <path class="st1" d="M31.7,31.2c0,.6-.5,1-1,1s-1-.4-1-1,.5-1,1-1c.7,0,1,.5,1,1h0Z"/>
    <path class="st1" d="M33.5,28.9c0,.6-.5,1-1,1s-1-.5-1-1,.5-1,1-1,1,.5,1,1h0Z"/>
    <path class="st1" d="M34.7,26.5c0,.6-.5,1-1,1s-1-.4-1-1,.5-1,1-1,1,.4,1,1h0Z"/>
    <path class="st1" d="M35.5,23.7c0,.6-.5,1-1,1s-1-.5-1-1,.5-1,1-1,1,.5,1,1h0Z"/>
    <path class="st1" d="M35.2,21c0,.6-.5,1-1,1s-1-.4-1-1,.4-1,1-1,1,.4,1,1h0Z"/>
    <path class="st1" d="M34.5,18.5c0,.6-.5,1-1,1s-1-.4-1-1,.5-1,1-1c.5.1,1,.4,1,1h0Z"/>
    <path class="st1" d="M33.1,16.5c0,.6-.5,1-1,1s-1-.5-1-1,.5-1,1-1,1,.4,1,1h0Z"/>
    <path class="st1" d="M31.2,14.8c0,.6-.5,1-1,1s-1-.5-1-1,.5-1,1-1,1,.5,1,1h0Z"/>
    <path class="st1" d="M28.8,13.8c0,.6-.5,1-1,1s-1-.5-1-1,.5-1,1-1,1,.4,1,1h0Z"/>
    <path class="st1" d="M26.4,13.5c0,.6-.5,1-1,1s-1-.4-1-1,.5-1,1-1,1,.5,1,1h0Z"/>
    <path class="st1" d="M24,13.9c0,.6-.5,1-1,1s-1-.4-1-1,.5-1,1-1,1,.4,1,1h0Z"/>
    <path class="st1" d="M21.6,14.9c0,.6-.5,1-1,1s-1-.5-1-1,.5-1,1-1,1,.5,1,1h0Z"/>
    <path class="st1" d="M19.7,16.6c0,.6-.5,1-1,1s-1-.5-1-1,.4-1,1-1,1,.4,1,1h0Z"/>
    <path class="st1" d="M18.3,18.6c0,.6-.5,1-1,1s-1-.5-1-1,.4-1,1-1,1,.4,1,1h0Z"/>
    <path class="st1" d="M17.5,21c0,.6-.4,1-1,1s-1-.5-1-1,.5-1,1-1c.6.1,1,.6,1,1h0Z"/>
    <path class="st1" d="M17.4,23.9c0,.6-.5,1-1,1s-1-.5-1-1,.5-1,1-1,1,.4,1,1h0Z"/>
    <path class="st1" d="M18.2,26.4c0,.6-.5,1-1,1s-1-.4-1-1,.5-1,1-1,1,.5,1,1h0Z"/>
    <path class="st1" d="M19.4,28.9c0,.6-.5,1-1,1s-1-.5-1-1,.5-1,1-1,1,.4,1,1h0Z"/>
    <path class="st1" d="M21.2,31.2c0,.6-.5,1-1,1s-1-.5-1-1,.5-1,1-1,1,.5,1,1h0Z"/>
    <path class="st1" d="M22.3,33.5c0,.6-.5,1-1,1s-1-.5-1-1,.5-1,1-1,1,.5,1,1h0Z"/>
    <path class="st1" d="M23,36.1c0,.6-.5,1-1,1s-1-.5-1-1,.5-1,1-1,1,.4,1,1h0Z"/>
    <g>
      <path class="st0" d="M36.8,31.1c0,.2-.2.5-.5.5s-.5-.2-.5-.5.2-.5.5-.5c.3.1.5.3.5.5h0Z"/>
      <path class="st0" d="M38.1,31.8c0,.3-.2.5-.5.5s-.5-.2-.5-.5.2-.5.5-.5.5.2.5.5h0Z"/>
      <path class="st0" d="M39.3,32.5c0,.3-.2.5-.5.5s-.5-.2-.5-.5.2-.5.5-.5.5.3.5.5h0Z"/>
      <path class="st0" d="M38.8,26.9c0,.2,0,.5-.3.6-.2.1-.5,0-.6-.3,0-.2,0-.5.3-.6.3,0,.5.1.6.3h0Z"/>
      <path class="st0" d="M40.3,27.2c0,.2,0,.5-.3.6-.2.1-.5,0-.6-.3,0-.2,0-.5.3-.6s.5,0,.6.3h0Z"/>
      <path class="st0" d="M39.3,21.1c0,.2,0,.5-.3.6-.2.1-.5,0-.6-.3,0-.2,0-.5.3-.6.3,0,.6.2.6.3h0Z"/>
      <path class="st0" d="M40.8,21c0,.2,0,.5-.3.6-.2.1-.5,0-.6-.3,0-.2,0-.5.3-.6s.5,0,.6.3h0Z"/>
      <path class="st0" d="M42.2,20.7c0,.2,0,.5-.3.6-.2.1-.5,0-.6-.3,0-.2,0-.5.3-.6.2-.1.5,0,.6.3h0Z"/>
      <path class="st0" d="M37.9,16c0,.2,0,.5-.3.6-.2.1-.5,0-.6-.3,0-.2,0-.5.3-.6s.5,0,.6.3h0Z"/>
      <path class="st0" d="M39.1,15.2c0,.2,0,.5-.3.6-.2.1-.5,0-.6-.3,0-.2,0-.5.3-.6.3,0,.6.1.6.3h0Z"/>
      <path class="st0" d="M40.4,14.5c0,.2,0,.5-.3.6-.2.1-.5,0-.6-.3,0-.2,0-.5.3-.6.3,0,.5,0,.6.3h0Z"/>
      <path class="st0" d="M34.9,12c0,.2,0,.5-.3.6-.2.1-.5,0-.6-.3,0-.2,0-.5.3-.6.4,0,.5.1.6.3h0Z"/>
      <path class="st0" d="M35.9,10.9c0,.2,0,.5-.3.6-.2.1-.5,0-.6-.3,0-.2,0-.5.3-.6.3,0,.5.2.6.3h0Z"/>
      <path class="st0" d="M36.9,9.8c0,.2,0,.5-.3.6-.2.1-.5,0-.6-.3,0-.2,0-.5.3-.6.2,0,.5.1.6.3h0Z"/>
      <path class="st0" d="M30.7,9.3c.1.2,0,.5-.3.6-.2.1-.5,0-.6-.3-.1-.2,0-.5.3-.6.3,0,.5.1.6.3h0Z"/>
      <path class="st0" d="M31.3,7.9c.1.2,0,.5-.3.6-.2.1-.5,0-.6-.3-.1-.2,0-.5.3-.6.2,0,.5,0,.6.3h0Z"/>
      <path class="st0" d="M31.7,6.6c.1.2,0,.5-.3.6-.2,0-.5,0-.6-.3-.1-.2,0-.5.3-.6.3,0,.5.1.6.3h0Z"/>
      <path class="st0" d="M25.5,8.7c.1.2,0,.5-.3.6-.2.1-.5,0-.6-.3-.1-.2,0-.5.3-.6.3,0,.6.1.6.3h0Z"/>
      <path class="st0" d="M25.5,7.3c.1.2,0,.5-.3.6-.2,0-.5,0-.6-.3-.1-.2,0-.5.3-.6.3,0,.6,0,.6.3h0Z"/>
      <path class="st0" d="M25.5,5.9c.1.2,0,.5-.3.6-.2,0-.5,0-.6-.3-.1-.2,0-.5.3-.6s.6,0,.6.3h0Z"/>
      <path class="st0" d="M20.1,7c.1.2,0,.5-.3.6-.2,0-.5,0-.6-.3-.1-.2,0-.5.3-.6s.6,0,.6.3h0Z"/>
      <path class="st0" d="M20.7,8.3c.1.2,0,.5-.3.6-.2.1-.5,0-.6-.3-.1-.2,0-.5.3-.6.2,0,.5,0,.6.3h0Z"/>
      <path class="st0" d="M21.2,9.7c.1.2,0,.5-.3.6-.2.1-.5,0-.6-.3-.1-.2,0-.5.3-.6.2,0,.5,0,.6.3h0Z"/>
      <path class="st0" d="M15,10.2c.1.2,0,.5-.3.6-.2.1-.5,0-.6-.3-.1-.2,0-.5.3-.6.2,0,.5.1.6.3h0Z"/>
      <path class="st0" d="M15.9,11.2c.1.2,0,.5-.3.6-.2.1-.5,0-.6-.3-.1-.2,0-.5.3-.6.3,0,.5.1.6.3h0Z"/>
      <path class="st0" d="M16.9,12.4c.1.2,0,.5-.3.6-.2.1-.5,0-.6-.3-.1-.2,0-.5.3-.6.2,0,.5.1.6.3h0Z"/>
      <path class="st0" d="M14,16.3c.1.2,0,.5-.3.6-.2.1-.5,0-.6-.3-.1-.2,0-.5.3-.6.2,0,.5.1.6.3h0Z"/>
      <path class="st0" d="M12.5,21.5c.1.2,0,.5-.3.6-.2.1-.5,0-.6-.3-.1-.2,0-.5.3-.6.2-.1.5,0,.6.3h0Z"/>
      <path class="st0" d="M13,27.3c.1.2,0,.5-.3.6-.2.1-.5,0-.6-.3-.1-.2,0-.5.3-.6s.5,0,.6.3h0Z"/>
      <path class="st0" d="M15,31.2c.1.2,0,.5-.3.6-.2.1-.5,0-.6-.3-.1-.2,0-.5.3-.6.3,0,.5.2.6.3h0Z"/>
      <path class="st0" d="M13.8,32c.1.2,0,.5-.3.6-.2,0-.5,0-.6-.3-.1-.2,0-.5.3-.6.3,0,.5.1.6.3h0Z"/>
      <path class="st0" d="M12.5,32.7c.1.2,0,.5-.3.6-.2,0-.5,0-.6-.3-.1-.2,0-.5.3-.6.3,0,.5,0,.6.3h0Z"/>
      <path class="st0" d="M11.5,27.5c.1.2,0,.5-.3.6-.2.1-.5,0-.6-.3-.1-.2,0-.5.3-.6.3,0,.5,0,.6.3h0Z"/>
      <path class="st0" d="M10.1,27.8c.1.2,0,.5-.3.6-.2.1-.5,0-.6-.3-.1-.2,0-.5.3-.6s.6,0,.6.3h0Z"/>
      <path class="st0" d="M11.1,21.2c.1.2,0,.5-.3.6-.2.1-.5,0-.6-.3-.1-.2,0-.5.3-.6s.5,0,.6.3h0Z"/>
      <path class="st0" d="M9.6,21c.1.2,0,.5-.3.6-.2.1-.5,0-.6-.3-.1-.2,0-.5.3-.6.3,0,.6,0,.6.3h0Z"/>
      <path class="st0" d="M12.7,15.6c.1.2,0,.5-.3.6-.2.1-.5,0-.6-.3-.1-.2,0-.5.3-.6.2-.1.5,0,.6.3h0Z"/>
      <path class="st0" d="M11.4,14.8c.1.2,0,.5-.3.6-.2.1-.5,0-.6-.3-.1-.2,0-.5.3-.6.3,0,.5.1.6.3h0Z"/>
      <path class="st0" d="M41.7,27.4c0,.2,0,.5-.3.6-.2.1-.5,0-.6-.3s0-.5.3-.6c.3,0,.5.1.6.3h0Z"/>
    </g>
    <path class="st0" d="M22.7,40.9c0,.2-.2.5-.5.5s-.5-.2-.5-.5.2-.5.5-.5.5.2.5.5h0Z"/>
    <path class="st0" d="M24.2,40.8c0,.3-.2.5-.5.5s-.5-.2-.5-.5.2-.4.5-.4.5.2.5.4h0Z"/>
    <path class="st0" d="M25.6,40.7c0,.2-.2.5-.5.5s-.5-.2-.5-.5.2-.5.5-.5.5.3.5.5h0Z"/>
    <path class="st0" d="M27.1,40.6c0,.3-.2.5-.5.5s-.5-.2-.5-.5.2-.5.5-.5c.3.1.5.3.5.5h0Z"/>
    <path class="st0" d="M28.5,40.6c0,.2-.2.5-.5.5s-.5-.2-.5-.5.2-.5.5-.5.5.2.5.5h0Z"/>
    <path class="st0" d="M23.1,42.6c0,.2-.2.5-.5.5s-.5-.2-.5-.5.2-.5.5-.5.5.2.5.5h0Z"/>
    <path class="st0" d="M24.6,42.5c0,.2-.2.5-.4.5-.3,0-.5-.2-.5-.5s.2-.5.5-.5.4.2.4.5h0Z"/>
    <path class="st0" d="M26,42.4c0,.3-.2.5-.5.5s-.5-.2-.5-.5.2-.5.5-.5.5.3.5.5h0Z"/>
    <path class="st0" d="M27.6,42.3c0,.3-.2.5-.5.5s-.5-.2-.5-.5.2-.5.5-.5c.2.1.5.3.5.5h0Z"/>
    <path class="st0" d="M29,42.2c0,.3-.2.5-.5.5s-.5-.2-.5-.5.2-.5.5-.5.5.3.5.5h0Z"/>
    <path class="st0" d="M22.9,44.4c0,.2-.2.5-.5.5s-.5-.2-.5-.5.2-.5.5-.5.5.2.5.5h0Z"/>
    <path class="st0" d="M24.4,44.3c0,.2-.2.5-.5.5s-.5-.2-.5-.5.2-.5.5-.5.5.2.5.5h0Z"/>
    <path class="st0" d="M25.8,44.2c0,.2-.2.5-.5.5s-.5-.2-.5-.5.2-.5.5-.5.5.3.5.5h0Z"/>
    <path class="st0" d="M27.3,44.1c0,.3-.2.5-.5.5s-.5-.2-.5-.5.2-.5.5-.5c.3.1.5.3.5.5h0Z"/>
    <path class="st0" d="M28.8,44c0,.3-.2.5-.5.5s-.5-.2-.5-.5.2-.5.5-.5.5.3.5.5h0Z"/>
  </g>
  <g>
    <path class="st3" d="M84.06,24.24c0,2.29-.41,4.4-1.24,6.34-.82,1.93-1.99,3.6-3.49,4.98-1.42,1.32-3.01,2.3-4.77,2.93s-3.65.96-5.65.96-3.84-.3-5.59-.91c-1.75-.61-3.3-1.52-4.66-2.74-1.53-1.38-2.74-3.05-3.61-5.03-.87-1.98-1.31-4.16-1.31-6.55,0-2.22.36-4.24,1.08-6.07.72-1.83,1.82-3.47,3.3-4.93,1.35-1.35,2.94-2.38,4.77-3.09,1.83-.72,3.82-1.07,5.97-1.07s4.06.33,5.85,1c1.8.67,3.38,1.64,4.74,2.93,1.53,1.45,2.68,3.13,3.45,5.06.77,1.93,1.15,3.99,1.15,6.2ZM76.76,24.47c0-1.45-.24-2.88-.73-4.3-.49-1.42-1.23-2.6-2.23-3.53-.63-.6-1.35-1.07-2.17-1.42-.82-.34-1.73-.52-2.73-.52s-1.9.17-2.73.53c-.83.35-1.6.87-2.3,1.56-.89.89-1.58,2-2.07,3.34s-.74,2.71-.74,4.13c0,1.56.25,2.99.74,4.29s1.21,2.4,2.16,3.28c.63.6,1.37,1.08,2.21,1.44.84.36,1.76.54,2.75.54s1.86-.17,2.7-.51c.84-.34,1.59-.84,2.27-1.48.87-.83,1.57-1.9,2.09-3.2.52-1.3.78-2.68.78-4.14Z"/>
    <path class="st3" d="M114.27,30.13c0,1.6-.49,3.03-1.48,4.28s-2.4,2.21-4.24,2.88c-1.49.54-3.21.92-5.17,1.12-1.96.2-4.1.3-6.44.3-1.26,0-2.58-.02-3.96-.05-1.38-.04-2.39-.07-3.05-.1.03-2.35.05-4.75.06-7.19.01-2.44.02-5.07.02-7.88,0-3.07-.01-6.07-.04-9-.03-2.93-.04-4.48-.04-4.63.24,0,1.04-.03,2.38-.09,1.35-.06,2.79-.09,4.34-.09,2.33,0,4.28.06,5.82.19,1.55.13,2.95.39,4.21.78,1.59.49,2.85,1.24,3.78,2.27.93,1.03,1.4,2.29,1.4,3.78,0,1.36-.4,2.6-1.19,3.72s-1.85,1.94-3.17,2.47v.15c.83.12,1.61.32,2.34.61.73.29,1.38.69,1.95,1.19.85.64,1.47,1.4,1.88,2.27.4.87.6,1.87.6,3.02ZM106.96,29.33c0-.66-.13-1.23-.39-1.72-.26-.49-.61-.93-1.05-1.33-.39-.33-.9-.6-1.55-.82s-1.34-.32-2.08-.32c-.57,0-1.05,0-1.42.02-.37.01-.6.02-.69.02l-.6-2.73c.76-.03,1.47-.14,2.13-.33.66-.19,1.21-.45,1.65-.76.47-.36.86-.8,1.17-1.33.31-.52.46-1.17.46-1.93,0-.65-.17-1.24-.5-1.79-.34-.55-.8-.98-1.39-1.29-.5-.24-1.09-.42-1.77-.54-.68-.12-1.4-.17-2.16-.17-.39,0-.78,0-1.19.02-.41.01-.68.02-.83.02-.03,1.45-.05,3.05-.05,4.82,0,1.76-.01,3.33-.01,4.69s0,3.34.02,5.82c.01,2.47.02,3.81.02,4.01.2,0,.5.01.91.03s.87.03,1.39.03c1.12,0,2.19-.06,3.23-.18,1.04-.12,1.9-.38,2.59-.76.66-.34,1.17-.82,1.55-1.42.37-.6.56-1.29.56-2.06Z"/>
    <path class="st3" d="M127.07,38.61h-7.11c.01-1.22.03-2.98.05-5.29.02-2.31.03-5.44.03-9.39,0-1.66,0-3.76-.02-6.31-.01-2.54-.04-5.14-.06-7.79h7.11c-.01,1.96-.03,4.22-.05,6.78s-.03,4.83-.03,6.82c0,4.05.01,7.19.03,9.4s.04,4.14.05,5.77Z"/>
    <path class="st3" d="M154.49,38.61c-.34,0-1.84,0-4.48-.02-2.64-.01-4.69-.02-6.16-.02-1.72,0-3.7,0-5.95.02-2.25.01-3.63.02-4.15.02l-1.74-4.02c1.12-.47,2.24-1,3.37-1.58,1.13-.58,2.27-1.21,3.42-1.89,1.66-.98,2.9-1.92,3.71-2.82.81-.91,1.21-1.91,1.21-3.02,0-.78-.2-1.42-.61-1.93-.41-.51-.99-.91-1.73-1.2-.62-.24-1.36-.42-2.22-.54-.87-.12-1.77-.17-2.7-.17-.6,0-1.19.01-1.76.04-.57.03-1.07.05-1.48.06l.71-5.07c.44-.01.98-.04,1.61-.06.63-.03,1.24-.04,1.83-.04,1.65,0,3.16.09,4.53.28s2.65.52,3.82.99c1.72.66,2.99,1.53,3.8,2.61.82,1.08,1.22,2.38,1.22,3.92,0,1.02-.26,2.02-.77,3s-1.2,1.87-2.06,2.66c-.75.72-1.69,1.44-2.84,2.15-1.15.72-2.21,1.31-3.18,1.77l.04.19c.95-.04,1.85-.08,2.73-.11.87-.03,1.65-.05,2.32-.06,1.55-.01,3.1-.03,4.65-.04,1.55-.01,2.5-.02,2.85-.02v4.9Z"/>
    <path class="st3" d="M181.15,27.7c0,1.69-.32,3.28-.95,4.76-.63,1.48-1.57,2.76-2.81,3.83-1.07.96-2.35,1.7-3.83,2.21s-3.08.77-4.8.77-3.23-.25-4.72-.76-2.78-1.24-3.88-2.2c-1.22-1.1-2.15-2.38-2.79-3.85s-.97-3.06-.97-4.79.29-3.24.86-4.61c.57-1.37,1.43-2.6,2.58-3.68,1.09-1.04,2.4-1.85,3.94-2.42,1.54-.57,3.2-.85,4.97-.85s3.43.27,4.92.79c1.49.53,2.79,1.3,3.91,2.32,1.17,1.09,2.06,2.34,2.66,3.75.6,1.41.9,2.98.9,4.72ZM174.58,27.83c0-1.03-.17-2.02-.49-2.96-.33-.95-.82-1.73-1.48-2.36-.47-.47-1.03-.84-1.67-1.11-.64-.26-1.36-.4-2.16-.4-.89,0-1.64.14-2.26.42-.62.28-1.17.66-1.65,1.13-.59.56-1.05,1.31-1.39,2.26-.34.95-.5,1.9-.5,2.86,0,1.06.16,2.04.47,2.93.31.9.83,1.68,1.55,2.35.47.46,1.02.82,1.64,1.07s1.33.39,2.12.39,1.5-.13,2.14-.39c.64-.26,1.19-.61,1.67-1.05.64-.62,1.14-1.37,1.49-2.27.35-.89.53-1.85.53-2.87Z"/>
    <path class="st3" d="M206.37,38.61c-.34,0-1.84,0-4.48-.02-2.64-.01-4.69-.02-6.16-.02-1.72,0-3.7,0-5.95.02-2.25.01-3.63.02-4.15.02l-1.74-4.02c1.12-.47,2.24-1,3.37-1.58,1.13-.58,2.27-1.21,3.42-1.89,1.66-.98,2.9-1.92,3.71-2.82.81-.91,1.21-1.91,1.21-3.02,0-.78-.2-1.42-.61-1.93-.41-.51-.99-.91-1.73-1.2-.62-.24-1.36-.42-2.22-.54-.87-.12-1.77-.17-2.7-.17-.6,0-1.19.01-1.76.04-.57.03-1.07.05-1.48.06l.71-5.07c.44-.01.98-.04,1.61-.06.63-.03,1.24-.04,1.83-.04,1.65,0,3.16.09,4.53.28s2.65.52,3.82.99c1.72.66,2.99,1.53,3.8,2.61.82,1.08,1.22,2.38,1.22,3.92,0,1.02-.26,2.02-.77,3s-1.2,1.87-2.06,2.66c-.75.72-1.69,1.44-2.84,2.15-1.15.72-2.21,1.31-3.18,1.77l.04.19c.95-.04,1.85-.08,2.73-.11.87-.03,1.65-.05,2.32-.06,1.55-.01,3.1-.03,4.65-.04,1.55-.01,2.5-.02,2.85-.02v4.9Z"/>
    <path class="st3" d="M231.96,29.13c0,1.36-.32,2.68-.95,3.97-.63,1.28-1.43,2.35-2.41,3.21-1.15.97-2.42,1.71-3.81,2.21-1.4.5-2.93.75-4.59.75s-3.22-.24-4.66-.71c-1.45-.47-2.74-1.2-3.89-2.19-.93-.8-1.69-1.81-2.28-3.02-.59-1.21-.88-2.58-.88-4.11s.25-2.96.76-4.37c.51-1.41,1.63-3.2,3.38-5.36,1.5-1.85,3.24-3.79,5.21-5.82,1.97-2.03,3.62-3.72,4.95-5.07l5.67,3.37c-1.1,1.06-2.37,2.3-3.8,3.71-1.43,1.42-2.59,2.57-3.48,3.46v.09c.88.14,1.88.39,3.01.75s2.15.8,3.05,1.33c1.59.93,2.77,2.05,3.55,3.34s1.16,2.78,1.16,4.46ZM225.39,28.78c0-1.13-.3-2.12-.9-2.98-.6-.86-1.39-1.55-2.35-2.08-.7-.43-1.46-.76-2.27-1-.81-.24-1.5-.4-2.06-.5-.76.8-1.41,1.77-1.94,2.92s-.8,2.32-.8,3.54c0,.85.13,1.63.39,2.35.26.72.64,1.36,1.14,1.9.49.52,1.05.89,1.68,1.13.63.24,1.29.35,1.98.35s1.41-.15,2.09-.44c.67-.29,1.23-.7,1.66-1.21.45-.49.79-1.07,1.02-1.74.24-.67.36-1.42.36-2.23Z"/>
  </g>
</svg>