<?xml version="1.0" encoding="UTF-8"?>
<svg id="Layer_1" xmlns="http://www.w3.org/2000/svg" version="1.1" viewBox="0 0 235 50">
  <!-- Generator: Adobe Illustrator 30.2.1, SVG Export Plug-In . SVG Version: 2.1.1 Build 1)  -->
  <defs>
    <style>
      .st0 {
        stroke-width: .4px;
      }

      .st0, .st1 {
        fill: #231f20;
        fill-rule: evenodd;
        stroke: #231f20;
      }

      .st0, .st1, .st2 {
        stroke-miterlimit: 10;
      }

      .st1 {
        stroke-width: .2px;
      }

      .st3 {
        fill: #fff;
      }

      .st2 {
        fill: #ffc337;
        stroke: #fff;
        stroke-width: 3px;
      }
    </style>
  </defs>
  <circle class="st2" cx="25.5" cy="25.3" r="22.9"/>
  <g>
    <path class="st0" d="M22.9,39.1c0,.2-.2.4-.5.4s-.5-.2-.5-.4.2-.5.5-.5.5.3.5.5h0Z"/>
    <path class="st0" d="M24.4,39c0,.3-.2.5-.5.5s-.5-.2-.5-.5.2-.5.5-.5.5.3.5.5h0Z"/>
    <path class="st0" d="M25.9,39c0,.3-.2.5-.5.5s-.5-.2-.5-.5.2-.5.5-.5.5.2.5.5h0Z"/>
    <path class="st0" d="M27.4,38.9c0,.2-.2.5-.5.5s-.5-.2-.5-.5.2-.5.5-.5.5.2.5.5h0Z"/>
    <path class="st0" d="M28.8,38.8c0,.3-.2.5-.5.5s-.5-.2-.5-.5.2-.5.5-.5.5.2.5.5h0Z"/>
    <path class="st1" d="M29.9,36.1c0,.6-.5,1-1,1s-1-.5-1-1,.5-1,1-1,1,.5,1,1h0Z"/>
    <path class="st1" d="M30.6,33.6c0,.6-.5,1-1,1s-1-.4-1-1,.5-1,1-1,1,.4,1,1h0Z"/>
    <path class="st1" d="M31.7,31.2c0,.6-.5,1-1,1s-1-.4-1-1,.5-1,1-1c.7,0,1,.5,1,1h0Z"/>
    <path class="st1" d="M33.5,28.9c0,.6-.5,1-1,1s-1-.5-1-1,.5-1,1-1,1,.5,1,1h0Z"/>
    <path class="st1" d="M34.7,26.5c0,.6-.5,1-1,1s-1-.4-1-1,.5-1,1-1,1,.4,1,1h0Z"/>
    <path class="st1" d="M35.5,23.7c0,.6-.5,1-1,1s-1-.5-1-1,.5-1,1-1,1,.5,1,1h0Z"/>
    <path class="st1" d="M35.2,21c0,.6-.5,1-1,1s-1-.4-1-1,.4-1,1-1,1,.4,1,1h0Z"/>
    <path class="st1" d="M34.5,18.5c0,.6-.5,1-1,1s-1-.4-1-1,.5-1,1-1c.5.1,1,.4,1,1h0Z"/>
    <path class="st1" d="M33.1,16.5c0,.6-.5,1-1,1s-1-.5-1-1,.5-1,1-1,1,.4,1,1h0Z"/>
    <path class="st1" d="M31.2,14.8c0,.6-.5,1-1,1s-1-.5-1-1,.5-1,1-1,1,.5,1,1h0Z"/>
    <path class="st1" d="M28.8,13.8c0,.6-.5,1-1,1s-1-.5-1-1,.5-1,1-1,1,.4,1,1h0Z"/>
    <path class="st1" d="M26.4,13.5c0,.6-.5,1-1,1s-1-.4-1-1,.5-1,1-1,1,.5,1,1h0Z"/>
    <path class="st1" d="M24,13.9c0,.6-.5,1-1,1s-1-.4-1-1,.5-1,1-1,1,.4,1,1h0Z"/>
    <path class="st1" d="M21.6,14.9c0,.6-.5,1-1,1s-1-.5-1-1,.5-1,1-1,1,.5,1,1h0Z"/>
    <path class="st1" d="M19.7,16.6c0,.6-.5,1-1,1s-1-.5-1-1,.4-1,1-1,1,.4,1,1h0Z"/>
    <path class="st1" d="M18.3,18.6c0,.6-.5,1-1,1s-1-.5-1-1,.4-1,1-1,1,.4,1,1h0Z"/>
    <path class="st1" d="M17.5,21c0,.6-.4,1-1,1s-1-.5-1-1,.5-1,1-1c.6.1,1,.6,1,1h0Z"/>
    <path class="st1" d="M17.4,23.9c0,.6-.5,1-1,1s-1-.5-1-1,.5-1,1-1,1,.4,1,1h0Z"/>
    <path class="st1" d="M18.2,26.4c0,.6-.5,1-1,1s-1-.4-1-1,.5-1,1-1,1,.5,1,1h0Z"/>
    <path class="st1" d="M19.4,28.9c0,.6-.5,1-1,1s-1-.5-1-1,.5-1,1-1,1,.4,1,1h0Z"/>
    <path class="st1" d="M21.2,31.2c0,.6-.5,1-1,1s-1-.5-1-1,.5-1,1-1,1,.5,1,1h0Z"/>
    <path class="st1" d="M22.3,33.5c0,.6-.5,1-1,1s-1-.5-1-1,.5-1,1-1,1,.5,1,1h0Z"/>
    <path class="st1" d="M23,36.1c0,.6-.5,1-1,1s-1-.5-1-1,.5-1,1-1,1,.4,1,1h0Z"/>
    <g>
      <path class="st0" d="M36.8,31.1c0,.2-.2.5-.5.5s-.5-.2-.5-.5.2-.5.5-.5c.3.1.5.3.5.5h0Z"/>
      <path class="st0" d="M38.1,31.8c0,.3-.2.5-.5.5s-.5-.2-.5-.5.2-.5.5-.5.5.2.5.5h0Z"/>
      <path class="st0" d="M39.3,32.5c0,.3-.2.5-.5.5s-.5-.2-.5-.5.2-.5.5-.5.5.3.5.5h0Z"/>
      <path class="st0" d="M38.8,26.9c0,.2,0,.5-.3.6-.2.1-.5,0-.6-.3,0-.2,0-.5.3-.6.3,0,.5.1.6.3h0Z"/>
      <path class="st0" d="M40.3,27.2c0,.2,0,.5-.3.6-.2.1-.5,0-.6-.3,0-.2,0-.5.3-.6s.5,0,.6.3h0Z"/>
      <path class="st0" d="M39.3,21.1c0,.2,0,.5-.3.6-.2.1-.5,0-.6-.3,0-.2,0-.5.3-.6.3,0,.6.2.6.3h0Z"/>
      <path class="st0" d="M40.8,21c0,.2,0,.5-.3.6-.2.1-.5,0-.6-.3,0-.2,0-.5.3-.6s.5,0,.6.3h0Z"/>
      <path class="st0" d="M42.2,20.7c0,.2,0,.5-.3.6-.2.1-.5,0-.6-.3,0-.2,0-.5.3-.6.2-.1.5,0,.6.3h0Z"/>
      <path class="st0" d="M37.9,16c0,.2,0,.5-.3.6-.2.1-.5,0-.6-.3,0-.2,0-.5.3-.6s.5,0,.6.3h0Z"/>
      <path class="st0" d="M39.1,15.2c0,.2,0,.5-.3.6-.2.1-.5,0-.6-.3,0-.2,0-.5.3-.6.3,0,.6.1.6.3h0Z"/>
      <path class="st0" d="M40.4,14.5c0,.2,0,.5-.3.6-.2.1-.5,0-.6-.3,0-.2,0-.5.3-.6.3,0,.5,0,.6.3h0Z"/>
      <path class="st0" d="M34.9,12c0,.2,0,.5-.3.6-.2.1-.5,0-.6-.3,0-.2,0-.5.3-.6.4,0,.5.1.6.3h0Z"/>
      <path class="st0" d="M35.9,10.9c0,.2,0,.5-.3.6-.2.1-.5,0-.6-.3,0-.2,0-.5.3-.6.3,0,.5.2.6.3h0Z"/>
      <path class="st0" d="M36.9,9.8c0,.2,0,.5-.3.6-.2.1-.5,0-.6-.3,0-.2,0-.5.3-.6.2,0,.5.1.6.3h0Z"/>
      <path class="st0" d="M30.7,9.3c.1.2,0,.5-.3.6-.2.1-.5,0-.6-.3-.1-.2,0-.5.3-.6.3,0,.5.1.6.3h0Z"/>
      <path class="st0" d="M31.3,7.9c.1.2,0,.5-.3.6-.2.1-.5,0-.6-.3-.1-.2,0-.5.3-.6.2,0,.5,0,.6.3h0Z"/>
      <path class="st0" d="M31.7,6.6c.1.2,0,.5-.3.6-.2,0-.5,0-.6-.3-.1-.2,0-.5.3-.6.3,0,.5.1.6.3h0Z"/>
      <path class="st0" d="M25.5,8.7c.1.2,0,.5-.3.6-.2.1-.5,0-.6-.3-.1-.2,0-.5.3-.6.3,0,.6.1.6.3h0Z"/>
      <path class="st0" d="M25.5,7.3c.1.2,0,.5-.3.6-.2,0-.5,0-.6-.3-.1-.2,0-.5.3-.6.3,0,.6,0,.6.3h0Z"/>
      <path class="st0" d="M25.5,5.9c.1.2,0,.5-.3.6-.2,0-.5,0-.6-.3-.1-.2,0-.5.3-.6s.6,0,.6.3h0Z"/>
      <path class="st0" d="M20.1,7c.1.2,0,.5-.3.6-.2,0-.5,0-.6-.3-.1-.2,0-.5.3-.6s.6,0,.6.3h0Z"/>
      <path class="st0" d="M20.7,8.3c.1.2,0,.5-.3.6-.2.1-.5,0-.6-.3-.1-.2,0-.5.3-.6.2,0,.5,0,.6.3h0Z"/>
      <path class="st0" d="M21.2,9.7c.1.2,0,.5-.3.6-.2.1-.5,0-.6-.3-.1-.2,0-.5.3-.6.2,0,.5,0,.6.3h0Z"/>
      <path class="st0" d="M15,10.2c.1.2,0,.5-.3.6-.2.1-.5,0-.6-.3-.1-.2,0-.5.3-.6.2,0,.5.1.6.3h0Z"/>
      <path class="st0" d="M15.9,11.2c.1.2,0,.5-.3.6-.2.1-.5,0-.6-.3-.1-.2,0-.5.3-.6.3,0,.5.1.6.3h0Z"/>
      <path class="st0" d="M16.9,12.4c.1.2,0,.5-.3.6-.2.1-.5,0-.6-.3-.1-.2,0-.5.3-.6.2,0,.5.1.6.3h0Z"/>
      <path class="st0" d="M14,16.3c.1.2,0,.5-.3.6-.2.1-.5,0-.6-.3-.1-.2,0-.5.3-.6.2,0,.5.1.6.3h0Z"/>
      <path class="st0" d="M12.5,21.5c.1.2,0,.5-.3.6-.2.1-.5,0-.6-.3-.1-.2,0-.5.3-.6.2-.1.5,0,.6.3h0Z"/>
      <path class="st0" d="M13,27.3c.1.2,0,.5-.3.6-.2.1-.5,0-.6-.3-.1-.2,0-.5.3-.6s.5,0,.6.3h0Z"/>
      <path class="st0" d="M15,31.2c.1.2,0,.5-.3.6-.2.1-.5,0-.6-.3-.1-.2,0-.5.3-.6.3,0,.5.2.6.3h0Z"/>
      <path class="st0" d="M13.8,32c.1.2,0,.5-.3.6-.2,0-.5,0-.6-.3-.1-.2,0-.5.3-.6.3,0,.5.1.6.3h0Z"/>
      <path class="st0" d="M12.5,32.7c.1.2,0,.5-.3.6-.2,0-.5,0-.6-.3-.1-.2,0-.5.3-.6.3,0,.5,0,.6.3h0Z"/>
      <path class="st0" d="M11.5,27.5c.1.2,0,.5-.3.6-.2.1-.5,0-.6-.3-.1-.2,0-.5.3-.6.3,0,.5,0,.6.3h0Z"/>
      <path class="st0" d="M10.1,27.8c.1.2,0,.5-.3.6-.2.1-.5,0-.6-.3-.1-.2,0-.5.3-.6s.6,0,.6.3h0Z"/>
      <path class="st0" d="M11.1,21.2c.1.2,0,.5-.3.6-.2.1-.5,0-.6-.3-.1-.2,0-.5.3-.6s.5,0,.6.3h0Z"/>
      <path class="st0" d="M9.6,21c.1.2,0,.5-.3.6-.2.1-.5,0-.6-.3-.1-.2,0-.5.3-.6.3,0,.6,0,.6.3h0Z"/>
      <path class="st0" d="M12.7,15.6c.1.2,0,.5-.3.6-.2.1-.5,0-.6-.3-.1-.2,0-.5.3-.6.2-.1.5,0,.6.3h0Z"/>
      <path class="st0" d="M11.4,14.8c.1.2,0,.5-.3.6-.2.1-.5,0-.6-.3-.1-.2,0-.5.3-.6.3,0,.5.1.6.3h0Z"/>
      <path class="st0" d="M41.7,27.4c0,.2,0,.5-.3.6-.2.1-.5,0-.6-.3s0-.5.3-.6c.3,0,.5.1.6.3h0Z"/>
    </g>
    <path class="st0" d="M22.7,40.9c0,.2-.2.5-.5.5s-.5-.2-.5-.5.2-.5.5-.5.5.2.5.5h0Z"/>
    <path class="st0" d="M24.2,40.8c0,.3-.2.5-.5.5s-.5-.2-.5-.5.2-.4.5-.4.5.2.5.4h0Z"/>
    <path class="st0" d="M25.6,40.7c0,.2-.2.5-.5.5s-.5-.2-.5-.5.2-.5.5-.5.5.3.5.5h0Z"/>
    <path class="st0" d="M27.1,40.6c0,.3-.2.5-.5.5s-.5-.2-.5-.5.2-.5.5-.5c.3.1.5.3.5.5h0Z"/>
    <path class="st0" d="M28.5,40.6c0,.2-.2.5-.5.5s-.5-.2-.5-.5.2-.5.5-.5.5.2.5.5h0Z"/>
    <path class="st0" d="M23.1,42.6c0,.2-.2.5-.5.5s-.5-.2-.5-.5.2-.5.5-.5.5.2.5.5h0Z"/>
    <path class="st0" d="M24.6,42.5c0,.2-.2.5-.4.5-.3,0-.5-.2-.5-.5s.2-.5.5-.5.4.2.4.5h0Z"/>
    <path class="st0" d="M26,42.4c0,.3-.2.5-.5.5s-.5-.2-.5-.5.2-.5.5-.5.5.3.5.5h0Z"/>
    <path class="st0" d="M27.6,42.3c0,.3-.2.5-.5.5s-.5-.2-.5-.5.2-.5.5-.5c.2.1.5.3.5.5h0Z"/>
    <path class="st0" d="M29,42.2c0,.3-.2.5-.5.5s-.5-.2-.5-.5.2-.5.5-.5.5.3.5.5h0Z"/>
    <path class="st0" d="M22.9,44.4c0,.2-.2.5-.5.5s-.5-.2-.5-.5.2-.5.5-.5.5.2.5.5h0Z"/>
    <path class="st0" d="M24.4,44.3c0,.2-.2.5-.5.5s-.5-.2-.5-.5.2-.5.5-.5.5.2.5.5h0Z"/>
    <path class="st0" d="M25.8,44.2c0,.2-.2.5-.5.5s-.5-.2-.5-.5.2-.5.5-.5.5.3.5.5h0Z"/>
    <path class="st0" d="M27.3,44.1c0,.3-.2.5-.5.5s-.5-.2-.5-.5.2-.5.5-.5c.3.1.5.3.5.5h0Z"/>
    <path class="st0" d="M28.8,44c0,.3-.2.5-.5.5s-.5-.2-.5-.5.2-.5.5-.5.5.3.5.5h0Z"/>
  </g>
  <g>
    <path class="st3" d="M90.53,24.91c0,2.19-.39,4.21-1.18,6.06-.79,1.85-1.9,3.44-3.34,4.77-1.36,1.26-2.88,2.2-4.56,2.8s-3.49.91-5.4.91-3.67-.29-5.34-.87c-1.67-.58-3.16-1.45-4.46-2.62-1.47-1.31-2.62-2.92-3.45-4.81-.84-1.89-1.25-3.98-1.25-6.27,0-2.12.35-4.06,1.04-5.8.69-1.75,1.74-3.32,3.15-4.72,1.29-1.29,2.81-2.27,4.56-2.96,1.75-.68,3.66-1.03,5.71-1.03s3.88.32,5.6.96c1.72.64,3.23,1.57,4.53,2.8,1.47,1.38,2.56,3,3.3,4.84.73,1.84,1.1,3.82,1.1,5.93ZM83.54,25.12c0-1.38-.23-2.75-.7-4.11-.47-1.36-1.18-2.49-2.14-3.38-.6-.57-1.29-1.03-2.08-1.35-.78-.33-1.65-.49-2.61-.49s-1.81.17-2.61.5c-.79.34-1.53.83-2.2,1.49-.85.85-1.51,1.91-1.98,3.19s-.71,2.6-.71,3.95c0,1.49.24,2.86.71,4.1s1.16,2.29,2.06,3.14c.6.58,1.31,1.03,2.12,1.38.81.34,1.68.51,2.63.51s1.78-.16,2.58-.49c.8-.33,1.52-.8,2.17-1.42.84-.79,1.5-1.81,2-3.06.5-1.24.75-2.57.75-3.96Z"/>
    <path class="st3" d="M119.41,30.53c0,1.53-.47,2.9-1.42,4.09s-2.3,2.11-4.05,2.75c-1.43.52-3.07.88-4.95,1.07-1.87.19-3.92.29-6.16.29-1.21,0-2.47-.02-3.78-.05-1.32-.03-2.29-.06-2.92-.09.03-2.25.05-4.54.06-6.88.01-2.34.02-4.85.02-7.54,0-2.93-.01-5.8-.04-8.6-.03-2.8-.04-4.28-.04-4.43.23,0,.99-.03,2.28-.08,1.29-.05,2.67-.08,4.15-.08,2.23,0,4.09.06,5.57.18,1.48.12,2.82.37,4.03.74,1.52.47,2.73,1.19,3.62,2.17.89.98,1.34,2.19,1.34,3.61,0,1.3-.38,2.49-1.14,3.56s-1.77,1.86-3.03,2.37v.14c.8.11,1.54.31,2.24.59.69.28,1.32.66,1.87,1.14.81.62,1.41,1.34,1.79,2.17.38.83.58,1.79.58,2.89ZM112.43,29.77c0-.63-.12-1.18-.37-1.64-.25-.47-.58-.89-1.01-1.27-.37-.31-.86-.58-1.48-.78s-1.28-.31-1.99-.31c-.55,0-1,0-1.36.02-.36.01-.58.02-.66.02l-.58-2.61c.73-.03,1.4-.13,2.03-.32.63-.18,1.16-.43,1.58-.73.45-.34.83-.77,1.12-1.27.29-.5.44-1.12.44-1.84,0-.62-.16-1.19-.48-1.71-.32-.52-.76-.93-1.33-1.24-.48-.23-1.04-.41-1.69-.51-.65-.11-1.34-.17-2.06-.17-.37,0-.75,0-1.14.02-.39.01-.65.02-.79.02-.03,1.38-.04,2.92-.05,4.61,0,1.69-.01,3.18-.01,4.48s0,3.2.02,5.56c.01,2.36.02,3.64.02,3.84.19,0,.48.01.87.03s.83.03,1.33.03c1.07,0,2.1-.06,3.09-.17.99-.12,1.82-.36,2.48-.73.63-.33,1.12-.78,1.48-1.36.36-.58.53-1.23.53-1.97Z"/>
    <path class="st3" d="M131.66,38.65h-6.8c.01-1.16.03-2.85.05-5.05.02-2.2.03-5.2.03-8.98,0-1.59,0-3.6-.02-6.03-.01-2.43-.03-4.91-.06-7.45h6.8c-.01,1.88-.03,4.04-.05,6.48s-.03,4.62-.03,6.52c0,3.88.01,6.87.03,8.99s.04,3.95.05,5.52Z"/>
    <path class="st3" d="M157.87,38.65c-.33,0-1.76,0-4.28-.02-2.53-.01-4.49-.02-5.89-.02-1.64,0-3.54,0-5.69.02-2.15.01-3.47.02-3.97.02l-1.66-3.84c1.07-.45,2.14-.96,3.23-1.51,1.08-.56,2.17-1.16,3.27-1.8,1.59-.93,2.77-1.83,3.54-2.7.77-.87,1.16-1.83,1.16-2.89,0-.74-.2-1.36-.59-1.84-.39-.49-.94-.87-1.65-1.14-.59-.23-1.3-.41-2.13-.51-.83-.11-1.69-.17-2.58-.17-.58,0-1.14.01-1.68.04-.55.03-1.02.05-1.42.06l.68-4.85c.42-.01.94-.03,1.54-.06.6-.03,1.18-.04,1.75-.04,1.57,0,3.02.09,4.34.27s2.53.49,3.66.95c1.64.63,2.86,1.46,3.64,2.49.78,1.03,1.17,2.28,1.17,3.75,0,.97-.25,1.93-.74,2.87s-1.15,1.79-1.97,2.54c-.71.69-1.62,1.37-2.71,2.06-1.1.69-2.11,1.25-3.04,1.69l.04.18c.9-.04,1.77-.07,2.61-.1.83-.03,1.57-.05,2.22-.06,1.48-.01,2.96-.03,4.45-.04,1.49-.01,2.39-.02,2.72-.02v4.68Z"/>
    <path class="st3" d="M183.37,28.21c0,1.62-.3,3.13-.9,4.55-.6,1.42-1.5,2.64-2.69,3.67-1.03.92-2.25,1.62-3.67,2.12s-2.95.74-4.59.74-3.09-.24-4.51-.73-2.65-1.19-3.71-2.11c-1.16-1.05-2.05-2.28-2.67-3.68s-.92-2.92-.92-4.58.27-3.1.82-4.41c.55-1.31,1.37-2.48,2.47-3.52,1.04-1,2.3-1.77,3.77-2.31,1.47-.54,3.06-.81,4.76-.81s3.28.25,4.7.76c1.42.51,2.67,1.25,3.74,2.22,1.12,1.04,1.97,2.24,2.55,3.59.58,1.35.86,2.85.86,4.51ZM177.08,28.34c0-.99-.16-1.93-.47-2.84-.32-.9-.79-1.66-1.42-2.26-.45-.45-.98-.8-1.59-1.06-.61-.25-1.3-.38-2.06-.38-.85,0-1.57.13-2.16.4-.59.27-1.12.63-1.58,1.08-.56.53-1,1.25-1.33,2.16-.32.9-.48,1.82-.48,2.73,0,1.01.15,1.95.45,2.8.3.86.79,1.61,1.48,2.25.45.44.98.78,1.57,1.03s1.27.37,2.02.37,1.43-.12,2.04-.37c.61-.25,1.14-.58,1.59-1.01.62-.59,1.09-1.31,1.43-2.17.34-.86.5-1.77.5-2.74Z"/>
    <path class="st3" d="M207.49,38.65c-.33,0-1.76,0-4.28-.02-2.53-.01-4.49-.02-5.89-.02-1.64,0-3.54,0-5.69.02-2.15.01-3.47.02-3.97.02l-1.66-3.84c1.07-.45,2.14-.96,3.23-1.51,1.08-.56,2.17-1.16,3.27-1.8,1.59-.93,2.77-1.83,3.54-2.7.77-.87,1.16-1.83,1.16-2.89,0-.74-.2-1.36-.59-1.84-.39-.49-.94-.87-1.65-1.14-.59-.23-1.3-.41-2.13-.51-.83-.11-1.69-.17-2.58-.17-.58,0-1.14.01-1.68.04-.55.03-1.02.05-1.42.06l.68-4.85c.42-.01.94-.03,1.54-.06.6-.03,1.18-.04,1.75-.04,1.57,0,3.02.09,4.34.27s2.53.49,3.66.95c1.64.63,2.86,1.46,3.64,2.49.78,1.03,1.17,2.28,1.17,3.75,0,.97-.25,1.93-.74,2.87s-1.15,1.79-1.97,2.54c-.71.69-1.62,1.37-2.71,2.06-1.1.69-2.11,1.25-3.04,1.69l.04.18c.9-.04,1.77-.07,2.61-.1.83-.03,1.57-.05,2.22-.06,1.48-.01,2.96-.03,4.45-.04,1.49-.01,2.39-.02,2.72-.02v4.68Z"/>
    <path class="st3" d="M231.96,29.58c0,1.3-.3,2.57-.9,3.79-.6,1.23-1.37,2.25-2.3,3.07-1.1.93-2.31,1.64-3.65,2.12-1.34.48-2.8.72-4.39.72s-3.08-.23-4.46-.68c-1.38-.45-2.62-1.15-3.72-2.1-.89-.77-1.62-1.73-2.18-2.89-.56-1.16-.84-2.47-.84-3.93s.24-2.83.73-4.18c.49-1.35,1.56-3.06,3.23-5.13,1.44-1.77,3.1-3.62,4.98-5.57,1.88-1.94,3.46-3.56,4.73-4.85l5.42,3.22c-1.06,1.01-2.27,2.2-3.64,3.55-1.37,1.36-2.48,2.46-3.33,3.31v.08c.84.14,1.8.38,2.88.72s2.06.77,2.92,1.27c1.52.89,2.65,1.96,3.39,3.2s1.11,2.66,1.11,4.27ZM225.67,29.24c0-1.08-.29-2.03-.86-2.85-.58-.82-1.33-1.48-2.25-1.99-.67-.41-1.4-.73-2.17-.96-.78-.23-1.43-.39-1.97-.48-.73.77-1.34,1.7-1.85,2.79s-.76,2.22-.76,3.39c0,.81.12,1.56.37,2.25.25.69.61,1.3,1.09,1.82.47.49,1,.85,1.61,1.08.6.23,1.24.34,1.89.34s1.35-.14,2-.42c.65-.28,1.17-.67,1.59-1.16.43-.47.75-1.02.98-1.66.23-.64.34-1.36.34-2.13Z"/>
  </g>
</svg>